<mxfile host="app.diagrams.net" modified="2024-05-23T09:18:01.637Z" agent="Mozilla/5.0 (Windows NT 10.0; Win64; x64) AppleWebKit/537.36 (KHTML, like Gecko) Chrome/124.0.0.0 Safari/537.36 Edg/124.0.0.0" etag="lkDpSdEzM9ZM23FUka_p" version="24.4.0" type="device">
  <diagram name="PÃ¡gina-1" id="wBImNXssRS4IYYQiQknP">
    <mxGraphModel dx="1386" dy="785" grid="1" gridSize="10" guides="1" tooltips="1" connect="1" arrows="1" fold="1" page="1" pageScale="1" pageWidth="827" pageHeight="1169" math="0" shadow="0">
      <root>
        <mxCell id="0" />
        <mxCell id="1" parent="0" />
        <mxCell id="i5fO6hQSRDVD2sj5C72Z-12" style="edgeStyle=orthogonalEdgeStyle;rounded=0;orthogonalLoop=1;jettySize=auto;html=1;entryX=1;entryY=0.75;entryDx=0;entryDy=0;fillColor=#d5e8d4;strokeColor=#82b366;endArrow=none;endFill=0;" edge="1" parent="1" source="i5fO6hQSRDVD2sj5C72Z-1" target="i5fO6hQSRDVD2sj5C72Z-7">
          <mxGeometry relative="1" as="geometry">
            <Array as="points">
              <mxPoint x="450" y="240" />
              <mxPoint x="255" y="240" />
              <mxPoint x="255" y="208" />
            </Array>
          </mxGeometry>
        </mxCell>
        <mxCell id="i5fO6hQSRDVD2sj5C72Z-1" value="Virtual Machine" style="sketch=0;pointerEvents=1;shadow=0;dashed=0;html=1;strokeColor=none;labelPosition=center;verticalLabelPosition=bottom;verticalAlign=top;outlineConnect=0;align=center;shape=mxgraph.office.servers.physical_host;fillColor=#2072B8;" vertex="1" parent="1">
          <mxGeometry x="430" y="280" width="27" height="52" as="geometry" />
        </mxCell>
        <mxCell id="i5fO6hQSRDVD2sj5C72Z-11" style="edgeStyle=orthogonalEdgeStyle;rounded=0;orthogonalLoop=1;jettySize=auto;html=1;endArrow=none;endFill=0;" edge="1" parent="1" source="i5fO6hQSRDVD2sj5C72Z-3" target="i5fO6hQSRDVD2sj5C72Z-7">
          <mxGeometry relative="1" as="geometry">
            <Array as="points">
              <mxPoint x="340" y="240" />
              <mxPoint x="255" y="240" />
            </Array>
          </mxGeometry>
        </mxCell>
        <mxCell id="i5fO6hQSRDVD2sj5C72Z-3" value="" style="image;points=[];aspect=fixed;html=1;align=center;shadow=0;dashed=0;image=img/lib/allied_telesis/computer_and_terminals/Laptop.svg;" vertex="1" parent="1">
          <mxGeometry x="320" y="289.4" width="42" height="42.599999999999994" as="geometry" />
        </mxCell>
        <mxCell id="i5fO6hQSRDVD2sj5C72Z-10" style="edgeStyle=orthogonalEdgeStyle;rounded=0;orthogonalLoop=1;jettySize=auto;html=1;entryX=0.5;entryY=1;entryDx=0;entryDy=0;endArrow=none;endFill=0;" edge="1" parent="1" source="i5fO6hQSRDVD2sj5C72Z-4" target="i5fO6hQSRDVD2sj5C72Z-7">
          <mxGeometry relative="1" as="geometry">
            <Array as="points">
              <mxPoint x="280" y="240" />
              <mxPoint x="255" y="240" />
            </Array>
          </mxGeometry>
        </mxCell>
        <mxCell id="i5fO6hQSRDVD2sj5C72Z-4" value="" style="verticalLabelPosition=bottom;html=1;verticalAlign=top;align=center;strokeColor=none;fillColor=#00BEF2;shape=mxgraph.azure.mobile;pointerEvents=1;" vertex="1" parent="1">
          <mxGeometry x="270" y="290" width="20" height="38" as="geometry" />
        </mxCell>
        <mxCell id="i5fO6hQSRDVD2sj5C72Z-9" style="edgeStyle=orthogonalEdgeStyle;rounded=0;orthogonalLoop=1;jettySize=auto;html=1;entryX=0.5;entryY=1;entryDx=0;entryDy=0;endArrow=none;endFill=0;" edge="1" parent="1" source="i5fO6hQSRDVD2sj5C72Z-5" target="i5fO6hQSRDVD2sj5C72Z-7">
          <mxGeometry relative="1" as="geometry">
            <Array as="points">
              <mxPoint x="215" y="240" />
              <mxPoint x="255" y="240" />
            </Array>
          </mxGeometry>
        </mxCell>
        <mxCell id="i5fO6hQSRDVD2sj5C72Z-5" value="" style="image;points=[];aspect=fixed;html=1;align=center;shadow=0;dashed=0;image=img/lib/allied_telesis/computer_and_terminals/Personal_Computer_Wireless.svg;" vertex="1" parent="1">
          <mxGeometry x="190" y="290.00000000000006" width="50.44" height="51.4" as="geometry" />
        </mxCell>
        <mxCell id="i5fO6hQSRDVD2sj5C72Z-8" style="edgeStyle=orthogonalEdgeStyle;rounded=0;orthogonalLoop=1;jettySize=auto;html=1;entryX=0.5;entryY=1;entryDx=0;entryDy=0;endArrow=none;endFill=0;" edge="1" parent="1" source="i5fO6hQSRDVD2sj5C72Z-6" target="i5fO6hQSRDVD2sj5C72Z-7">
          <mxGeometry relative="1" as="geometry">
            <Array as="points">
              <mxPoint x="140" y="240" />
              <mxPoint x="255" y="240" />
            </Array>
          </mxGeometry>
        </mxCell>
        <mxCell id="i5fO6hQSRDVD2sj5C72Z-6" value="" style="verticalLabelPosition=bottom;sketch=0;aspect=fixed;html=1;verticalAlign=top;strokeColor=none;align=center;outlineConnect=0;shape=mxgraph.citrix.printer;" vertex="1" parent="1">
          <mxGeometry x="110" y="290" width="42" height="42" as="geometry" />
        </mxCell>
        <mxCell id="i5fO6hQSRDVD2sj5C72Z-7" value="" style="image;html=1;image=img/lib/clip_art/networking/Wireless_Router_N_128x128.png" vertex="1" parent="1">
          <mxGeometry x="230" y="170" width="50" height="50" as="geometry" />
        </mxCell>
      </root>
    </mxGraphModel>
  </diagram>
</mxfile>
